<?xml version="1.0" encoding="utf-8"?>
<!DOCTYPE svg PUBLIC "-//W3C//DTD SVG 1.1//EN" "http://www.w3.org/Graphics/SVG/1.1/DTD/svg11.dtd">
<svg version="1.1" xmlns="http://www.w3.org/2000/svg" xmlns:xlink="http://www.w3.org/1999/xlink" x="0px" y="0px"
	 width="256px" height="256px" viewBox="0 0 256 256" xml:space="preserve">
<g fill="none" stroke="#000000" stroke-width="4">
	<path d="M69,29h40 M149,29h40 M49,39h20 M109,39h40 M189,39h20"/>
	<path d="M209,44h-20V34h-40V24h40v10h20V44z M149,44h-40V34H69V24h40v10h40V44z M69,44H49V34h20V44z"/>
	<path d="M189,104h-20V84h-20V64h40V104z M89,104H69V64h40v20H89V104z"/>
	<path d="M189,234H69v-10H49v-10H29v-20H9V74h20v20h40v10h120V94h40V74h20v120h-20v20h-20v10h-20V234z M69,214h120
		v-20h20v-20h20v-60H29v60h20v20h20V214z"/>
	<path d="M169,104h-20V84h20V104z M109,104H89V84h20V104z"/>
	<path d="M29,119h20 M89,119h80 M209,119h20 M29,129h20 M89,129h80 M209,129h20 M29,139h40 M89,139h80 M189,139h40
		 M29,149h200 M29,159h80 M149,159h80 M29,169h60 M169,169h60 M49,179h60 M149,179h60 M49,189h40 M109,189h40 M169,189h40 M109,199
		h40 M109,209h40"/>
	<polygon points="149,214 109,214 109,184 89,184 89,194 49,194 49,174 29,174 29,114 49,114 49,134 69,134 69,144
		89,144 89,114 169,114 169,144 189,144 189,134 209,134 209,114 229,114 229,174 209,174 209,194 169,194 169,184 149,184 149,174
		169,174 169,164 149,164 149,154 109,154 109,164 89,164 89,174 109,174 109,184 149,184 	"/>
	<path d="M189,214h-40v-30h20v10h20V214z M109,214H69v-20h20v-10h20V214z M189,144h-20v-30h40v20h-20V144z M89,144
		H69v-10H49v-20h40V144z"/>
	<polygon points="149,184 109,184 109,174 89,174 89,164 109,164 109,154 149,154 149,164 169,164 169,174 149,174
		"/>
</g>

<g fill="#FF0000">
	<path d="M69,29h40 M149,29h40 M49,39h20 M109,39h40 M189,39h20"/>
	<path d="M209,44h-20V34h-40V24h40v10h20V44z M149,44h-40V34H69V24h40v10h40V44z M69,44H49V34h20V44z"/>
</g>
<g fill="#FFFFFF">
	<path d="M189,104h-20V84h-20V64h40V104z M89,104H69V64h40v20H89V104z"/>
</g>
<g>
	<path d="M189,234H69v-10H49v-10H29v-20H9V74h20v20h40v10h120V94h40V74h20v120h-20v20h-20v10h-20V234z M69,214h120
		v-20h20v-20h20v-60H29v60h20v20h20V214z"/>
</g>
<g fill="#000000">
	<path d="M169,104h-20V84h20V104z M109,104H89V84h20V104z"/>
</g>
<g fill="#000000">
	<path d="M29,119h20 M89,119h80 M209,119h20 M29,129h20 M89,129h80 M209,129h20 M29,139h40 M89,139h80 M189,139h40
		 M29,149h200 M29,159h80 M149,159h80 M29,169h60 M169,169h60 M49,179h60 M149,179h60 M49,189h40 M109,189h40 M169,189h40 M109,199
		h40 M109,209h40"/>
	<polygon points="149,214 109,214 109,184 89,184 89,194 49,194 49,174 29,174 29,114 49,114 49,134 69,134 69,144
		89,144 89,114 169,114 169,144 189,144 189,134 209,134 209,114 229,114 229,174 209,174 209,194 169,194 169,184 149,184 149,174
		169,174 169,164 149,164 149,154 109,154 109,164 89,164 89,174 109,174 109,184 149,184 	"/>
</g>
<g fill="#ffffff">
	<path d="M189,214h-40v-30h20v10h20V214z M109,214H69v-20h20v-10h20V214z M189,144h-20v-30h40v20h-20V144z M89,144 H69v-10H49v-20h40V144z"/>
</g>
<g fill="#FF0000">
	<polygon points="149,184 109,184 109,174 89,174 89,164 109,164 109,154 149,154 149,164 169,164 169,174 149,174"/>
</g>

</svg>