<?xml version="1.0" encoding="utf-8"?>
<!DOCTYPE svg PUBLIC "-//W3C//DTD SVG 1.1//EN" "http://www.w3.org/Graphics/SVG/1.1/DTD/svg11.dtd">
<svg version="1.1" id="Layer_1" xmlns="http://www.w3.org/2000/svg" xmlns:xlink="http://www.w3.org/1999/xlink" x="0px" y="0px"
	 width="940px" height="340px" viewBox="0 0 940 340" enable-background="new 0 0 940 340" xml:space="preserve">
<circle fill="#FFFFFF" stroke="#000000" stroke-width="20" stroke-miterlimit="10" cx="170" cy="170" r="150"/>
<circle fill="#FFFFFF" stroke="#000000" stroke-width="20" stroke-miterlimit="10" cx="470" cy="170" r="150"/>
<circle fill="#FFFFFF" stroke="#000000" stroke-width="20" stroke-miterlimit="10" cx="770" cy="170" r="150"/>
<rect x="99" y="228" fill="#FF0000" stroke="#FFFFFF" stroke-width="10" stroke-miterlimit="10" width="674" height="25"/>
<path fill-rule="evenodd" clip-rule="evenodd" fill="#FF0000" stroke="#000000" stroke-width="5" stroke-miterlimit="10" d="
	M155.497,115.024c7.4,0,14.539,0,21.676,0.001c6.878,0,13.758,0.059,20.634-0.032c2.339-0.032,3.104,0.865,2.709,3.104
	c-0.85,4.808-1.688,9.618-2.401,14.446c-0.357,2.416-1.977,2.406-3.781,2.405c-13.123-0.015-26.245,0.036-39.369-0.052
	c-2.257-0.015-3.229,0.447-3.631,2.967c-3.421,21.423-7.082,42.807-10.53,64.228c-0.45,2.797-1.448,3.882-4.342,3.683
	c-3.604-0.247-7.238-0.134-10.855-0.033c-2.38,0.068-3.019-0.974-2.649-3.172c2.808-16.67,5.584-33.344,8.355-50.022
	c4.597-27.645,9.185-55.292,13.771-82.939c0.607-3.656,1.224-7.312,1.772-10.978c0.277-1.86,1-2.84,3.137-2.833
	c21.721,0.061,43.442,0.049,65.165,0.019c2.078-0.003,3.071,0.716,2.708,2.905c-0.816,4.904-1.64,9.808-2.372,14.726
	c-0.332,2.241-1.82,2.316-3.568,2.313c-15.476-0.022-30.952,0.068-46.428-0.083c-2.901-0.028-3.99,0.667-4.436,3.687
	c-1.666,11.265-3.685,22.477-5.554,33.711C155.421,113.594,155.497,114.142,155.497,115.024z"/>
<path fill-rule="evenodd" clip-rule="evenodd" fill="#FF0000" stroke="#000000" stroke-width="5" stroke-miterlimit="10" d="
	M454.437,113.749c1.067,0,2.125,0,3.18,0c15.939,0.001,31.878-0.003,47.816,0.002c3.983,0.002,4.26,0.301,3.633,4.178
	c-0.691,4.287-1.558,8.547-2.137,12.849c-0.308,2.295-1.35,2.951-3.582,2.94c-16.482-0.075-32.964,0.015-49.445-0.099
	c-2.524-0.017-3.28,0.725-3.674,3.227c-2.485,15.817-5.195,31.598-7.824,47.39c-0.072,0.429-0.065,0.87-0.116,1.608
	c1.093,0,2.068,0,3.042,0c16.12,0,32.241-0.002,48.361,0.002c3.71,0,3.984,0.278,3.432,3.842c-0.707,4.56-1.523,9.102-2.214,13.662
	c-0.266,1.752-1.094,2.442-2.893,2.44c-22.55-0.038-45.1-0.034-67.65-0.009c-2.177,0.002-2.857-0.86-2.495-3.025
	c5.305-31.763,10.567-63.532,15.827-95.302c2.616-15.795,5.222-31.592,7.804-47.393c0.697-4.26,0.646-4.271,4.848-4.271
	c21.554-0.001,43.106-0.002,64.662,0.001c4.016,0,4.327,0.416,3.624,4.428c-0.688,3.919-1.479,7.831-1.927,11.78
	c-0.313,2.775-1.362,3.808-4.291,3.783c-16.299-0.134-32.602-0.032-48.902-0.102c-2.209-0.01-3.264,0.34-3.647,2.931
	c-1.675,11.363-3.668,22.679-5.536,34.015C454.292,112.871,454.375,113.138,454.437,113.749z"/>
<path fill-rule="evenodd" clip-rule="evenodd" fill="#FF0000" stroke="#000000" stroke-width="5" stroke-miterlimit="10" d="
	M820.105,116.812c-0.676,18.461-4.325,39.235-14.961,58.246c-7.173,12.816-16.613,23.5-31,28.181
	c-13.063,4.251-25.924,3.599-37.228-5.279c-8.515-6.687-12.646-16.087-14.972-26.372c-2.514-11.115-2.486-22.372-1.546-33.648
	c1.308-15.654,4.634-30.797,11.294-45.136c6.224-13.399,14.833-24.804,28.092-31.735c12.988-6.79,26.472-7.298,39.573-0.041
	c9.07,5.024,13.983,13.47,17.157,23.003C819.729,93.693,820.463,103.7,820.105,116.812z M802.691,114.735
	c0.281-9.719-0.972-18.057-3.635-24.75c-6.021-15.141-21.874-20.086-35.445-11.022c-7.358,4.915-12.374,11.814-16.109,19.672
	c-7.953,16.728-10.396,34.543-10.115,52.859c0.101,6.541,0.988,12.977,3.336,19.108c2.993,7.81,7.689,14.103,16.435,15.853
	c8.216,1.644,15.631-0.513,22.1-5.808c8.999-7.369,13.864-17.366,17.549-28.044C801.09,140.187,802.676,127.327,802.691,114.735z"/>
</svg>
